<svg xmlns="http://www.w3.org/2000/svg" id="Layer_1" enable-background="new 0 0 64 64" viewBox="0 0 64 64"><path fill="#322e63" d="M32,0C14.4,0,0,14.4,0,32c0,17.6,14.4,32,32,32c17.6,0,32-14.4,32-32C64,14.4,49.6,0,32,0z M32,62.1
			C15.4,62.1,1.9,48.6,1.9,32C1.9,15.4,15.4,1.9,32,1.9c16.6,0,30.1,13.5,30.1,30.1C62.1,48.6,48.6,62.1,32,62.1z"/><path fill="#9bb7cc" d="M32,1.9C15.4,1.9,1.9,15.4,1.9,32c0,16.6,13.5,30.1,30.1,30.1c16.6,0,30.1-13.5,30.1-30.1
			C62.1,15.4,48.6,1.9,32,1.9z M25.9,29.8c-3.9,0-7.1-3-7.1-6.7c0-0.5,0.4-1,1-1c0.5,0,1,0.4,1,1c0,2.6,2.3,4.7,5.2,4.7
			s5.1-2.1,5.1-4.7c0-0.5,0.4-1,1-1c0.5,0,1,0.4,1,1C33,26.8,29.8,29.8,25.9,29.8z M39,49.9h-6.4c-0.5,0-1-0.4-1-1c0-0.5,0.4-1,1-1
			H39c0.5,0,1,0.4,1,1C39.9,49.4,39.5,49.9,39,49.9z M45.9,29.8c-3.9,0-7.1-3-7.1-6.7c0-0.5,0.4-1,1-1c0.5,0,1,0.4,1,1
			c0,2.6,2.3,4.7,5.2,4.7c2.8,0,5.1-2.1,5.1-4.7c0-0.5,0.4-1,1-1c0.5,0,1,0.4,1,1C52.9,26.8,49.8,29.8,45.9,29.8z"/><path fill="#8aa8ba" d="M62.1,32c0,16.6-13.5,30.1-30.1,30.1c-9.7,0-18.4-4.6-23.9-11.8c5.1,3.9,11.4,6.2,18.3,6.2
			C43,56.5,56.5,43,56.5,26.4c0-6.9-2.3-13.2-6.2-18.3C57.4,13.7,62.1,22.3,62.1,32z"/><g><path fill="#322e63" d="M52.9 23.1c0 3.7-3.2 6.7-7.1 6.7-3.9 0-7.1-3-7.1-6.7 0-.5.4-1 1-1 .5 0 1 .4 1 1 0 2.6 2.3 4.7 5.2 4.7 2.8 0 5.1-2.1 5.1-4.7 0-.5.4-1 1-1C52.5 22.1 52.9 22.5 52.9 23.1zM33 23.1c0 3.7-3.2 6.7-7.1 6.7-3.9 0-7.1-3-7.1-6.7 0-.5.4-1 1-1 .5 0 1 .4 1 1 0 2.6 2.3 4.7 5.2 4.7s5.1-2.1 5.1-4.7c0-.5.4-1 1-1C32.5 22.1 33 22.5 33 23.1z"/></g><g><path fill="#322e63" d="M39.9,48.9c0,0.5-0.4,1-1,1h-6.4c-0.5,0-1-0.4-1-1c0-0.5,0.4-1,1-1H39C39.5,47.9,39.9,48.3,39.9,48.9z"/></g></svg>